<?xml version="1.0"?>
<svg width="24" height="24" xmlns="http://www.w3.org/2000/svg" xmlns:svg="http://www.w3.org/2000/svg" data-name="Layer 1">
 <g class="layer">
  <title>Layer 1</title>
  <path d="m19.65,8.09c2.13,0 3.85,-1.72 3.85,-3.85s-1.72,-3.85 -3.85,-3.85s-3.85,1.72 -3.85,3.85s1.72,3.85 3.85,3.85zm0,-5.77c1.06,0 1.92,0.87 1.92,1.92s-0.87,1.92 -1.92,1.92s-1.92,-0.87 -1.92,-1.92s0.87,-1.92 1.92,-1.92zm3.14,13.7l0,-0.02s0,0 0,0l0,0l-1.52,-6.23c-0.51,0.15 -1.06,0.24 -1.63,0.24c-0.1,0 -0.19,-0.01 -0.3,-0.01l1.58,6.47c0,0.01 0.01,0.01 0.01,0.02l-0.01,0c0.08,0.3 0.02,0.6 -0.16,0.84c-0.18,0.24 -0.45,0.38 -0.76,0.38l-16.23,0c-0.29,0 -0.57,-0.13 -0.75,-0.36c-0.18,-0.23 -0.25,-0.53 -0.19,-0.78l2.26,-8.77c0.72,-3.22 3.54,-5.48 6.87,-5.48c0.74,0 1.46,0.13 2.14,0.35c0.18,-0.63 0.47,-1.22 0.84,-1.75c-0.93,-0.34 -1.94,-0.52 -2.98,-0.52c-4.23,0 -7.83,2.88 -8.73,6.95l-2.27,8.77c-0.18,0.86 0.02,1.74 0.58,2.43c0.55,0.68 1.37,1.08 2.24,1.08l3.47,0c0.45,2.19 2.39,3.85 4.71,3.85s4.26,-1.65 4.71,-3.85l3.34,0c0.91,0 1.75,-0.41 2.3,-1.14c0.54,-0.7 0.71,-1.6 0.49,-2.45c0,0 0,-0.01 0,-0.01l-0.01,-0.01zm-10.84,5.53c-1.25,0 -2.31,-0.81 -2.71,-1.92l5.41,0c-0.39,1.12 -1.45,1.92 -2.7,1.92z" fill="#ababab" id="svg_1"/>
  <ellipse cx="19.6" cy="4.3" fill="#ed234b" id="svg_2" rx="4.05" ry="4.05"/>
 </g>
</svg>