<?xml version="1.0"?>
<svg width="24" height="24" xmlns="http://www.w3.org/2000/svg" xmlns:svg="http://www.w3.org/2000/svg">
 <g class="layer">
  <title>Layer 1</title>
  <path d="m12,8a4,4 0 1 0 4,4a4,4 0 0 0 -4,-4zm0,6a2,2 0 1 1 2,-2a2,2 0 0 1 -2,2z" fill="#ababab" id="svg_1"/>
  <path d="m21.29,13.9l-0.44,-0.26a9.1,9.1 0 0 0 0,-3.29l0.44,-0.25a3,3 0 1 0 -3,-5.2l-0.44,0.25a8.98,8.98 0 0 0 -2.85,-1.64l0,-0.51a3,3 0 0 0 -6,0l0,0.51a8.98,8.98 0 0 0 -2.85,1.65l-0.44,-0.26a3,3 0 0 0 -3,5.2l0.44,0.26a9.1,9.1 0 0 0 0,3.29l-0.44,0.25a3,3 0 1 0 3,5.2l0.44,-0.26a8.98,8.98 0 0 0 2.85,1.65l0,0.51a3,3 0 0 0 6,0l0,-0.51a8.98,8.98 0 0 0 2.85,-1.65l0.44,0.26a3,3 0 0 0 3,-5.2zm-2.54,-3.78a7.05,7.05 0 0 1 0,3.75a1,1 0 0 0 0.46,1.14l1.08,0.62a1,1 0 0 1 -1,1.74l-1.08,-0.63a1,1 0 0 0 -1.22,0.16a6.98,6.98 0 0 1 -3.24,1.88a1,1 0 0 0 -0.75,0.97l0,1.25a1,1 0 0 1 -2,0l0,-1.25a1,1 0 0 0 -0.75,-0.97a6.98,6.98 0 0 1 -3.24,-1.88a1,1 0 0 0 -1.22,-0.17l-1.08,0.63a1,1 0 1 1 -1,-1.73l1.08,-0.63a1,1 0 0 0 0.47,-1.13a7.05,7.05 0 0 1 0,-3.75a1,1 0 0 0 -0.47,-1.13l-1.08,-0.62a1,1 0 0 1 1,-1.74l1.08,0.63a1,1 0 0 0 1.22,-0.16a6.98,6.98 0 0 1 3.24,-1.88a1,1 0 0 0 0.75,-0.97l0,-1.25a1,1 0 0 1 2,0l0,1.25a1,1 0 0 0 0.75,0.97a6.98,6.98 0 0 1 3.24,1.88a1,1 0 0 0 1.22,0.16l1.08,-0.62a1,1 0 1 1 1,1.73l-1.08,0.63a1,1 0 0 0 -0.46,1.13l0,-0.01z" fill="#ababab" id="svg_2" transform="matrix(1 0 0 1 0 0)"/>
 </g>
</svg>